<svg xmlns="http://www.w3.org/2000/svg" viewBox="26.5 64.8 447.0 370.4" style="rotate:90deg;" width="200.5px" height="229.85909090909092px">
  <g><path d="M224.7 349.7L203.6 370.7 355.5 370.7 473.5 250 355.5 129.3 203.6 129.3 224.7 150.3 339.6 150.3 436.6 250 339.6 349.7z" fill="rgb(76, 99, 129)"/></g>
  <g><path d="M165.1 296.6L26.5 435.2 85.5 435.2 194 326.7 274.7 326.7 315.3 286 373.2 286 409.2 250 373.2 214 315.3 214 274.7 173.3 194 173.3 85.5 64.8 26.5 64.8 165.1 203.4 248.9 203.4 295.5 250 248.9 296.6z" fill="rgb(76, 99, 129)"/></g>
  <g><path d="M155.7 407.3L213.4 349.7 185.1 349.7 127.5 407.3z" fill="rgb(76, 99, 129)"/></g>
  <g><path d="M213.4 150.3L155.7 92.7 127.5 92.7 185.1 150.3z" fill="rgb(76, 99, 129)"/></g>
  <g><path d="M319.4 326.1L349.4 296.4 319.8 296.4 289.9 326.1z" fill="rgb(76, 99, 129)"/></g>
  <g><path d="M349.4 203.6L319.4 173.9 289.9 173.9 319.8 203.6z" fill="rgb(76, 99, 129)"/></g>

  <g><path d="M84.7 423.4L200.8 307.3 167 307.3 53.8 423.4z" fill="rgb(76, 99, 129)"/></g>
  <g><path d="M200.8 192.7L84.7 76.6 53.8 76.6 167 192.7z" fill="rgb(76, 99, 129)"/></g>
  <g><path d="M379.8 238.3L362.9 221.4 302.4 221.4 265.7 183.2 240.8 184 295 238.3z" fill="rgb(76, 99, 129)"/></g>
  <g><path d="M265.7 316.8L302.4 278.6 362.9 278.6 379.8 261.7 295 261.7 240.8 316z" fill="rgb(76, 99, 129)"/></g>
  <g><path d="M354 362.5L462.1 250.5 456.5 250 462.1 249.5 354 137.5 346 146.5 447.2 250 346 353.5z" fill="rgb(76, 99, 129)"/></g>
  <g><path d="M345.8 365.1L337.3 355.3 228.5 355.3 217.9 365z" fill="rgb(76, 99, 129)"/></g>
  <g><path d="M337.3 144.7L345.8 134.9 217.9 135 228.5 144.7z" fill="rgb(76, 99, 129)"/></g>
</svg>